/* XPM */
static char * lic_icon_xpm[] = {
"32 32 11 1",
" 	c None",
".	c #008000",
"+	c #000000",
"@	c #800000",
"#	c #00C000",
"$	c #C02000",
"%	c #00FF00",
"&	c #E02000",
"*	c #000080",
"=	c #0000C0",
"-	c #0000FF",
"                                ",
"                                ",
"                                ",
"             ...+               ",
"    @@      .###.+              ",
"   $$$$     .#%#.+              ",
"  @$&&$@    .###.+              ",
"  @$&&$@+    ...+     ******    ",
"  @$&&$@+            ========   ",
"  @$&&$@+    ...    *=------=*  ",
"  @$&&$@+   .###.   *=------=*+ ",
"  @$&&$@+   .#%#.+  *=--=====*+ ",
"  @$&&$@+   .#%#.+  *=--=****+  ",
"  @$&&$@+   .#%#.+  *=--=*+++   ",
"  @$&&$@+   .#%#.+  *=--=*+     ",
"  @$&&$@+   .#%#.+  *=--=*+     ",
"  @$&&$@+   .#%#.+  *=--=*+     ",
"  @$&&$@+   .###.+  *=--=*+     ",
"  @$&&$@+    ...+   *=--=*+     ",
"  @$&&$@+           *=--=*+     ",
"  @$&&$@@@@@@@      *=--=****   ",
"  @$&&$$$$$$$$@     *=--=====*  ",
"  @$&&&&&&&&&$@+    *=------=*  ",
"  @$&&&&&&&&&$@+    *=------=*+ ",
"   $$$$$$$$$$$@+     ========+  ",
"    @@@@@@@@@@+       ******+   ",
"     +++++++++         +++++    ",
"                                ",
"                                ",
"                                ",
"                                ",
"                                "};
